<svg width="166" height="35" viewBox="0 0 166 35" fill="none" xmlns="http://www.w3.org/2000/svg">
<mask id="mask0_3724_77879" style="mask-type:luminance" maskUnits="userSpaceOnUse" x="-1" y="0" width="37" height="35">
<path d="M35.0476 0H-0.00195312V35H35.0476V0Z" fill="white"/>
</mask>
<g mask="url(#mask0_3724_77879)">
<path d="M-0.00195312 16.8C-0.00195312 8.88041 -0.00195312 4.92061 2.46183 2.4603C4.92562 0 8.89102 0 16.8218 0H18.2238C26.1546 0 30.12 0 32.5838 2.4603C35.0476 4.92061 35.0476 8.88041 35.0476 16.8V18.2C35.0476 26.1196 35.0476 30.0794 32.5838 32.5397C30.12 35 26.1546 35 18.2238 35H16.8218C8.89102 35 4.92562 35 2.46183 32.5397C-0.00195312 30.0794 -0.00195312 26.1196 -0.00195312 18.2V16.8Z" fill="#0077FF"/>
<path d="M18.6468 25.2133C10.6584 25.2133 6.10197 19.7445 5.91211 10.6445H9.91361C10.045 17.3237 12.995 20.1528 15.3316 20.7362V10.6445H19.0996V16.4049C21.407 16.157 23.8309 13.532 24.6488 10.6445H28.4167C27.7887 14.2029 25.16 16.8278 23.2907 17.907C25.16 18.782 28.154 21.0716 29.2931 25.2133H25.1454C24.2546 22.4424 22.035 20.2987 19.0996 20.007V25.2133H18.6468Z" fill="white"/>
</g>
<rect x="41.0479" y="5.71484" width="1.17857" height="23.5714" fill="black"/>
<path d="M51.8513 8.39453L56.651 20.2761L61.4007 8.39453H65.0255L58.3009 23.845H54.9761L48.2266 8.39453H51.8513Z" fill="black"/>
<path d="M66.9199 23.845V8.41629H70.3697V15.7498L77.8192 8.39453H81.619L74.8194 15.2493L82.044 23.845H78.1442L72.6195 17.1861L70.3697 19.2316V23.845H66.9199Z" fill="black"/>
<path d="M103.654 19.8627C103.654 20.7331 103.396 21.4658 102.879 22.0606C102.363 22.6409 101.663 23.0833 100.779 23.388C99.9127 23.6926 98.9627 23.845 97.9295 23.845H89.355V8.39453H98.8544C99.6877 8.39453 100.404 8.59038 101.004 8.98208C101.621 9.35928 102.088 9.85253 102.404 10.4618C102.737 11.0567 102.904 11.6805 102.904 12.3333C102.904 13.0732 102.688 13.7768 102.254 14.4441C101.821 15.1115 101.188 15.6047 100.354 15.9239C101.371 16.185 102.171 16.6565 102.754 17.3384C103.354 18.0202 103.654 18.8617 103.654 19.8627ZM100.179 19.2969C100.179 18.9052 100.088 18.557 99.9043 18.2523C99.721 17.9332 99.471 17.6866 99.1544 17.5125C98.8544 17.3239 98.5044 17.2296 98.1045 17.2296H92.8048V21.2989H97.9295C98.3461 21.2989 98.7211 21.2119 99.0544 21.0378C99.4044 20.8492 99.6794 20.6026 99.8793 20.2979C100.079 19.9932 100.179 19.6596 100.179 19.2969ZM92.8048 10.9624V14.8576H97.4045C97.7878 14.8576 98.1378 14.7778 98.4544 14.6182C98.7711 14.4586 99.0211 14.2338 99.2044 13.9436C99.4044 13.6535 99.5044 13.3053 99.5044 12.8991C99.5044 12.5074 99.4127 12.1665 99.2294 11.8763C99.0627 11.5862 98.8294 11.3613 98.5294 11.2017C98.2461 11.0421 97.9211 10.9624 97.5545 10.9624H92.8048Z" fill="black"/>
<path d="M106.021 23.845V12.4639H109.371V19.9497L115.246 12.4421H118.295V23.845H114.946V16.5332L109.146 23.845H106.021Z" fill="black"/>
<path d="M120.277 26.6086V21.2989H120.627C120.961 21.2989 121.269 21.2191 121.552 21.0595C121.852 20.9 122.11 20.6316 122.327 20.2544C122.56 19.8627 122.744 19.3259 122.877 18.644C123.027 17.9622 123.127 17.0918 123.177 16.0327L123.327 12.4421H133.151V21.2989H134.976V26.6086H132.052V23.845H123.227V26.6086H120.277ZM124.852 21.2989H129.802V14.9011H126.252L126.177 16.3156C126.127 17.2731 126.044 18.0855 125.927 18.7529C125.827 19.4057 125.685 19.9425 125.502 20.3632C125.335 20.7694 125.119 21.0813 124.852 21.2989Z" fill="black"/>
<path d="M143.222 24.0626C142.172 24.0626 141.222 23.9103 140.372 23.6056C139.522 23.2864 138.797 22.8585 138.197 22.3217C137.597 21.7704 137.13 21.1466 136.797 20.4502C136.48 19.7394 136.322 18.9922 136.322 18.2088C136.322 17.1208 136.597 16.127 137.147 15.2275C137.714 14.3281 138.514 13.61 139.547 13.0732C140.597 12.5219 141.83 12.2463 143.247 12.2463C144.68 12.2463 145.905 12.5219 146.921 13.0732C147.938 13.61 148.713 14.3281 149.246 15.2275C149.796 16.1125 150.071 17.07 150.071 18.1C150.071 18.2741 150.063 18.4555 150.046 18.644C150.03 18.8181 150.013 18.9632 149.996 19.0793H139.872C139.939 19.6596 140.13 20.1673 140.447 20.6026C140.78 21.0378 141.197 21.3715 141.697 21.6036C142.213 21.8212 142.763 21.93 143.347 21.93C144.013 21.93 144.638 21.7922 145.222 21.5165C145.822 21.2264 146.23 20.8492 146.447 20.3849L149.321 21.0813C149.005 21.6616 148.546 22.1766 147.946 22.6263C147.363 23.0761 146.672 23.4315 145.872 23.6926C145.072 23.9393 144.188 24.0626 143.222 24.0626ZM139.797 17.2296H146.646C146.58 16.6493 146.388 16.1488 146.072 15.7281C145.772 15.2928 145.372 14.9592 144.872 14.727C144.372 14.4804 143.813 14.3571 143.197 14.3571C142.597 14.3571 142.047 14.4804 141.547 14.727C141.064 14.9592 140.664 15.2928 140.347 15.7281C140.047 16.1488 139.864 16.6493 139.797 17.2296Z" fill="black"/>
<path d="M158.162 24.0626C157.095 24.0626 156.137 23.9103 155.287 23.6056C154.437 23.2864 153.712 22.8512 153.112 22.2999C152.529 21.7486 152.079 21.1176 151.762 20.4067C151.445 19.6958 151.287 18.9487 151.287 18.1653C151.287 17.3674 151.445 16.613 151.762 15.9021C152.079 15.1913 152.529 14.5602 153.112 14.0089C153.712 13.4576 154.437 13.0297 155.287 12.725C156.137 12.4058 157.095 12.2463 158.162 12.2463C159.228 12.2463 160.178 12.4058 161.011 12.725C161.861 13.0297 162.586 13.4576 163.186 14.0089C163.786 14.5602 164.236 15.1913 164.536 15.9021C164.853 16.613 165.011 17.3674 165.011 18.1653C165.011 18.9487 164.853 19.6958 164.536 20.4067C164.236 21.1176 163.786 21.7486 163.186 22.2999C162.603 22.8512 161.886 23.2864 161.036 23.6056C160.186 23.9103 159.228 24.0626 158.162 24.0626ZM154.737 18.1653C154.737 18.8326 154.887 19.4275 155.187 19.9497C155.487 20.4575 155.895 20.8564 156.412 21.1466C156.928 21.4367 157.512 21.5818 158.162 21.5818C158.795 21.5818 159.37 21.4367 159.886 21.1466C160.403 20.8419 160.811 20.4357 161.111 19.928C161.428 19.4057 161.586 18.8109 161.586 18.1435C161.586 17.4907 161.428 16.9032 161.111 16.3809C160.811 15.8586 160.403 15.4524 159.886 15.1623C159.37 14.8721 158.795 14.727 158.162 14.727C157.512 14.727 156.928 14.8794 156.412 15.184C155.895 15.4742 155.487 15.8804 155.187 16.4026C154.887 16.9104 154.737 17.498 154.737 18.1653Z" fill="black"/>
</svg>
