<svg width="33" height="33" viewBox="0 0 33 33" fill="none" xmlns="http://www.w3.org/2000/svg">
<g clip-path="url(#clip0_3415_35434)">
<mask id="mask0_3415_35434" style="mask-type:luminance" maskUnits="userSpaceOnUse" x="0" y="0" width="33" height="33">
<path d="M33 0H0V33H33V0Z" fill="white"/>
</mask>
<g mask="url(#mask0_3415_35434)">
<path d="M0 15.84C0 8.37296 0 4.63944 2.31972 2.31972C4.63944 0 8.37296 0 15.84 0H17.16C24.627 0 28.3606 0 30.6803 2.31972C33 4.63944 33 8.37296 33 15.84V17.16C33 24.627 33 28.3606 30.6803 30.6803C28.3606 33 24.627 33 17.16 33H15.84C8.37296 33 4.63944 33 2.31972 30.6803C0 28.3606 0 24.627 0 17.16V15.84Z" fill="#0077FF"/>
<path d="M17.9825 24C10.4659 24 6.17865 18.7447 6 10H9.76515C9.88883 16.4184 12.6645 19.1371 14.8631 19.6977V10H18.4085V15.5355C20.5797 15.2973 22.8605 12.7748 23.63 10H27.1754C26.5845 13.4194 24.111 15.9419 22.3522 16.9789C24.111 17.8198 26.9282 20.02 28 24H24.0973C23.2591 21.3373 21.1706 19.2773 18.4085 18.997V24H17.9825Z" fill="white"/>
</g>
</g>
<defs>
<clipPath id="clip0_3415_35434">
<rect width="33" height="33" fill="white"/>
</clipPath>
</defs>
</svg>
