<svg width="106" height="33" viewBox="0 0 106 33" fill="none" xmlns="http://www.w3.org/2000/svg">
<rect width="106" height="33" rx="6.47537" fill="#232323"/>
<path d="M25.2864 12.348C25.1784 11.8875 24.9585 11.4656 24.6488 11.1249C24.3392 10.7842 23.9508 10.5367 23.5229 10.4075C21.9593 10 15.7051 10 15.7051 10C15.7051 10 9.45086 10 7.8873 10.4463C7.45937 10.5755 7.07096 10.823 6.76131 11.1637C6.45166 11.5044 6.23174 11.9263 6.12376 12.3868C5.8376 14.0804 5.69763 15.7985 5.7056 17.5194C5.6954 19.2533 5.83538 20.9844 6.12376 22.6908C6.24281 23.137 6.46766 23.5428 6.77658 23.8692C7.08551 24.1955 7.46807 24.4313 7.8873 24.5537C9.45086 25 15.7051 25 15.7051 25C15.7051 25 21.9593 25 23.5229 24.5537C23.9508 24.4245 24.3392 24.177 24.6488 23.8363C24.9585 23.4956 25.1784 23.0737 25.2864 22.6132C25.5703 20.9323 25.7103 19.2274 25.7046 17.5194C25.7148 15.7855 25.5748 14.0544 25.2864 12.348Z" fill="white"/>
<path d="M13.4551 14.766C13.4551 14.2565 13.4551 14.0018 13.5548 13.8596C13.6417 13.7357 13.7748 13.6582 13.9195 13.6472C14.0855 13.6345 14.2862 13.7722 14.6877 14.0477L18.6305 16.753C18.9789 16.9921 19.1531 17.1116 19.2132 17.2636C19.2658 17.3964 19.2658 17.5462 19.2132 17.679C19.1531 17.831 18.9789 17.9505 18.6305 18.1895L14.6877 20.8948C14.2862 21.1703 14.0855 21.3081 13.9195 21.2954C13.7748 21.2844 13.6417 21.2068 13.5548 21.0829C13.4551 20.9407 13.4551 20.686 13.4551 20.1766V14.766Z" fill="#232323"/>
<path d="M25.2864 12.348C25.1784 11.8875 24.9585 11.4656 24.6488 11.1249C24.3392 10.7842 23.9508 10.5367 23.5229 10.4075C21.9593 10 15.7051 10 15.7051 10C15.7051 10 9.45086 10 7.8873 10.4463C7.45937 10.5755 7.07096 10.823 6.76131 11.1637C6.45166 11.5044 6.23174 11.9263 6.12376 12.3868C5.8376 14.0804 5.69763 15.7985 5.7056 17.5194C5.6954 19.2533 5.83538 20.9844 6.12376 22.6908C6.24281 23.137 6.46766 23.5428 6.77658 23.8692C7.08551 24.1955 7.46807 24.4313 7.8873 24.5537C9.45086 25 15.7051 25 15.7051 25C15.7051 25 21.9593 25 23.5229 24.5537C23.9508 24.4245 24.3392 24.177 24.6488 23.8363C24.9585 23.4956 25.1784 23.0737 25.2864 22.6132C25.5703 20.9323 25.7103 19.2274 25.7046 17.5194C25.7148 15.7855 25.5748 14.0544 25.2864 12.348Z" stroke="#232323" stroke-width="0.615752" stroke-linecap="round" stroke-linejoin="round"/>
<path d="M13.4551 14.766C13.4551 14.2565 13.4551 14.0018 13.5548 13.8596C13.6417 13.7357 13.7748 13.6582 13.9195 13.6472C14.0855 13.6345 14.2862 13.7722 14.6877 14.0477L18.6305 16.753C18.9789 16.9921 19.1531 17.1116 19.2132 17.2636C19.2658 17.3964 19.2658 17.5462 19.2132 17.679C19.1531 17.831 18.9789 17.9505 18.6305 18.1895L14.6877 20.8948C14.2862 21.1703 14.0855 21.3081 13.9195 21.2954C13.7748 21.2844 13.6417 21.2068 13.5548 21.0829C13.4551 20.9407 13.4551 20.686 13.4551 20.1766V14.766Z" stroke="#232323" stroke-width="0.615752" stroke-linecap="round" stroke-linejoin="round"/>
<path d="M35.7051 24.7973V10.4054H41.6848C42.3069 10.4054 42.8783 10.5405 43.3988 10.8108C43.932 11.0811 44.3891 11.4459 44.7699 11.9054C45.1635 12.3649 45.4619 12.8784 45.665 13.4459C45.8808 14.0135 45.9887 14.5946 45.9887 15.1892C45.9887 15.7973 45.8872 16.3851 45.684 16.9527C45.4936 17.5068 45.2143 17.9932 44.8461 18.4122C44.4779 18.8311 44.0463 19.1554 43.5511 19.3851L46.6362 24.7973H43.7416L40.9612 19.973H38.3331V24.7973H35.7051ZM38.3331 17.5203H41.6277C41.9578 17.5203 42.2498 17.4189 42.5037 17.2162C42.7576 17 42.9608 16.7162 43.1131 16.3649C43.2655 16.0135 43.3417 15.6216 43.3417 15.1892C43.3417 14.7297 43.2528 14.3311 43.075 13.9932C42.8973 13.6419 42.6688 13.3649 42.3895 13.1622C42.1228 12.9595 41.8308 12.8581 41.5134 12.8581H38.3331V17.5203Z" fill="white"/>
<path d="M47.8784 20.8243V14.1757H50.4303V20.2365C50.4303 21.0473 50.5699 21.6622 50.8492 22.0811C51.1285 22.4865 51.5412 22.6892 52.0871 22.6892C52.4172 22.6892 52.7409 22.6216 53.0583 22.4865C53.3884 22.3378 53.6868 22.1216 53.9534 21.8378C54.2327 21.5541 54.4676 21.1959 54.658 20.7635V14.1757H57.2099V21.7568C57.2099 22.0405 57.2543 22.2432 57.3432 22.3649C57.4447 22.4865 57.6034 22.5608 57.8193 22.5878V24.7973C57.5654 24.8378 57.3495 24.8649 57.1718 24.8784C57.0067 24.9054 56.8544 24.9189 56.7147 24.9189C56.2577 24.9189 55.8832 24.8108 55.5911 24.5946C55.3118 24.3649 55.1468 24.0541 55.096 23.6622L55.0389 22.8108C54.5945 23.527 54.0232 24.0743 53.3249 24.4527C52.6267 24.8176 51.8586 25 51.0206 25C49.9923 25 49.2115 24.6486 48.6782 23.9459C48.145 23.2297 47.8784 22.1892 47.8784 20.8243Z" fill="white"/>
<path d="M65.6884 24.25C65.4726 24.3446 65.2123 24.4527 64.9076 24.5743C64.6029 24.6959 64.2728 24.7905 63.9173 24.8581C63.5745 24.9392 63.2254 24.9797 62.8699 24.9797C62.4002 24.9797 61.9685 24.8919 61.5749 24.7162C61.1814 24.5405 60.864 24.2635 60.6227 23.8851C60.3942 23.4932 60.2799 22.9865 60.2799 22.3649V16.2635H58.9659V14.1757H60.2799V10.7297H62.8318V14.1757H64.9266V16.2635H62.8318V21.4527C62.8445 21.8176 62.9397 22.0811 63.1175 22.2432C63.2952 22.4054 63.5174 22.4865 63.784 22.4865C64.0506 22.4865 64.3109 22.4392 64.5648 22.3446C64.8187 22.25 65.0219 22.1689 65.1742 22.1014L65.6884 24.25Z" fill="white"/>
<path d="M66.9222 20.8243V14.1757H69.4741V20.2365C69.4741 21.0473 69.6138 21.6622 69.8931 22.0811C70.1724 22.4865 70.585 22.6892 71.1309 22.6892C71.461 22.6892 71.7847 22.6216 72.1021 22.4865C72.4322 22.3378 72.7306 22.1216 72.9972 21.8378C73.2765 21.5541 73.5114 21.1959 73.7018 20.7635V14.1757H76.2537V21.7568C76.2537 22.0405 76.2981 22.2432 76.387 22.3649C76.4886 22.4865 76.6473 22.5608 76.8631 22.5878V24.7973C76.6092 24.8378 76.3934 24.8649 76.2156 24.8784C76.0506 24.9054 75.8982 24.9189 75.7586 24.9189C75.3015 24.9189 74.927 24.8108 74.635 24.5946C74.3557 24.3649 74.1906 24.0541 74.1398 23.6622L74.0827 22.8108C73.6383 23.527 73.067 24.0743 72.3688 24.4527C71.6705 24.8176 70.9024 25 70.0645 25C69.0361 25 68.2553 24.6486 67.7221 23.9459C67.1888 23.2297 66.9222 22.1892 66.9222 20.8243Z" fill="white"/>
<path d="M84.4647 25C83.703 25 83.0237 24.8176 82.427 24.4527C81.8303 24.0878 81.3606 23.5878 81.0178 22.9527V24.7973H78.7896V10H81.3415V16.0405C81.697 15.4054 82.1604 14.9054 82.7317 14.5405C83.3157 14.1757 83.995 13.9932 84.7694 13.9932C85.4169 13.9932 86.0073 14.1419 86.5405 14.4392C87.0737 14.723 87.5308 15.1216 87.9116 15.6351C88.3052 16.1486 88.6036 16.7365 88.8067 17.3986C89.0225 18.0608 89.1304 18.7703 89.1304 19.527C89.1304 20.2838 89.0098 20.9932 88.7686 21.6554C88.5401 22.3176 88.2163 22.9054 87.7974 23.4189C87.3784 23.9189 86.8833 24.3108 86.312 24.5946C85.7533 24.8649 85.1376 25 84.4647 25ZM83.7601 22.6892C84.1664 22.6892 84.5345 22.6081 84.8646 22.4459C85.2074 22.2703 85.4994 22.0405 85.7407 21.7568C85.9946 21.473 86.185 21.1419 86.312 20.7635C86.4516 20.3716 86.5214 19.9662 86.5214 19.5473C86.5214 18.9662 86.4072 18.4324 86.1787 17.9459C85.9628 17.4459 85.6581 17.0473 85.2646 16.75C84.8837 16.4527 84.433 16.3041 83.9124 16.3041C83.5443 16.3041 83.1888 16.3986 82.846 16.5878C82.5159 16.7635 82.2175 17.0068 81.9509 17.3176C81.697 17.6284 81.4939 17.9797 81.3415 18.3716V20.9054C81.4177 21.1757 81.5383 21.4189 81.7034 21.6351C81.8811 21.8514 82.0842 22.0405 82.3128 22.2027C82.5413 22.3514 82.7762 22.473 83.0174 22.5676C83.2713 22.6486 83.5189 22.6892 83.7601 22.6892Z" fill="white"/>
<path d="M95.4871 25C94.6872 25 93.9636 24.8581 93.3161 24.5743C92.6686 24.277 92.1163 23.8784 91.6593 23.3784C91.2022 22.8649 90.8467 22.2838 90.5928 21.6351C90.3516 20.973 90.231 20.277 90.231 19.5473C90.231 18.5338 90.4405 17.6081 90.8594 16.7703C91.2911 15.9324 91.9005 15.2635 92.6876 14.7635C93.4875 14.25 94.427 13.9932 95.5061 13.9932C96.598 13.9932 97.5311 14.25 98.3056 14.7635C99.08 15.2635 99.6704 15.9324 100.077 16.7703C100.496 17.5946 100.705 18.4865 100.705 19.4459C100.705 19.6081 100.699 19.777 100.686 19.9527C100.673 20.1149 100.661 20.25 100.648 20.3581H92.9352C92.986 20.8986 93.132 21.3716 93.3732 21.777C93.6271 22.1824 93.9445 22.4932 94.3254 22.7095C94.719 22.9122 95.1379 23.0135 95.5823 23.0135C96.0901 23.0135 96.5662 22.8851 97.0106 22.6284C97.4676 22.3581 97.7787 22.0068 97.9437 21.5743L100.134 22.223C99.8925 22.7635 99.5434 23.2432 99.0864 23.6622C98.642 24.0811 98.1151 24.4122 97.5057 24.6554C96.8963 24.8851 96.2234 25 95.4871 25ZM92.8781 18.6351H98.0961C98.0453 18.0946 97.8993 17.6284 97.6581 17.2365C97.4295 16.8311 97.1248 16.5203 96.744 16.3041C96.3631 16.0743 95.9378 15.9595 95.468 15.9595C95.011 15.9595 94.592 16.0743 94.2111 16.3041C93.843 16.5203 93.5382 16.8311 93.297 17.2365C93.0685 17.6284 92.9288 18.0946 92.8781 18.6351Z" fill="white"/>
<rect x="29.7051" y="7" width="1" height="19" fill="#232323"/>
</svg>
