<svg width="33" height="33" viewBox="0 0 33 33" fill="none" xmlns="http://www.w3.org/2000/svg">
<g clip-path="url(#clip0_3415_35441)">
<path d="M16.5 33C25.6127 33 33 25.6127 33 16.5C33 7.3873 25.6127 0 16.5 0C7.3873 0 0 7.3873 0 16.5C0 25.6127 7.3873 33 16.5 33Z" fill="url(#paint0_linear_3415_35441)"/>
<path fill-rule="evenodd" clip-rule="evenodd" d="M7.23741 16.4574C12.0692 14.3406 15.2912 12.945 16.9033 12.2707C21.5063 10.3456 22.4627 10.0112 23.0861 10.0001C23.2232 9.99769 23.5298 10.0319 23.7284 10.1939C23.8961 10.3307 23.9422 10.5155 23.9643 10.6452C23.9864 10.775 24.0139 11.0705 23.992 11.3014C23.7426 13.9367 22.6633 20.3322 22.1142 23.2838C21.8818 24.5328 21.4244 24.9516 20.9815 24.9926C20.0189 25.0816 19.288 24.3529 18.3558 23.7384C16.897 22.7769 16.0729 22.1783 14.6569 21.24C13.0205 20.1556 14.0813 19.5596 15.0139 18.5856C15.258 18.3307 19.4988 14.4519 19.5809 14.1C19.5912 14.056 19.6007 13.892 19.5038 13.8053C19.4069 13.7187 19.2639 13.7483 19.1606 13.7719C19.0143 13.8053 16.6839 15.3542 12.1694 18.4185C11.5079 18.8753 10.9087 19.0978 10.3719 19.0862C9.78013 19.0733 8.64175 18.7497 7.79548 18.4731C6.75749 18.1338 5.93252 17.9544 6.00436 17.3782C6.04178 17.0781 6.45279 16.7712 7.23741 16.4574Z" fill="white"/>
</g>
<defs>
<linearGradient id="paint0_linear_3415_35441" x1="1650" y1="0" x2="1650" y2="3275.53" gradientUnits="userSpaceOnUse">
<stop stop-color="#2AABEE"/>
<stop offset="1" stop-color="#229ED9"/>
</linearGradient>
<clipPath id="clip0_3415_35441">
<rect width="33" height="33" fill="white"/>
</clipPath>
</defs>
</svg>
