<svg width="120" height="33" viewBox="0 0 120 33" fill="none" xmlns="http://www.w3.org/2000/svg">
<rect width="120" height="33" rx="6.47537" fill="white"/>
<path d="M26.5604 12.348C26.447 11.8875 26.2161 11.4656 25.891 11.1249C25.5658 10.7842 25.158 10.5367 24.7087 10.4075C23.0669 10 16.5 10 16.5 10C16.5 10 9.93307 10 8.29134 10.4463C7.842 10.5755 7.43418 10.823 7.10905 11.1637C6.78392 11.5044 6.553 11.9263 6.43961 12.3868C6.13915 14.0804 5.99218 15.7985 6.00055 17.5194C5.98984 19.2533 6.13682 20.9844 6.43961 22.6908C6.56461 23.137 6.80071 23.5428 7.12508 23.8692C7.44945 24.1955 7.85114 24.4313 8.29134 24.5537C9.93307 25 16.5 25 16.5 25C16.5 25 23.0669 25 24.7087 24.5537C25.158 24.4245 25.5658 24.177 25.891 23.8363C26.2161 23.4956 26.447 23.0737 26.5604 22.6132C26.8585 20.9323 27.0055 19.2274 26.9995 17.5194C27.0102 15.7855 26.8632 14.0544 26.5604 12.348Z" fill="#FF0000"/>
<path d="M14.1375 14.766C14.1375 14.2565 14.1375 14.0018 14.2422 13.8596C14.3335 13.7357 14.4732 13.6582 14.6251 13.6472C14.7994 13.6345 15.0102 13.7722 15.4317 14.0477L19.5717 16.753C19.9375 16.9921 20.1204 17.1116 20.1836 17.2636C20.2388 17.3964 20.2388 17.5462 20.1836 17.679C20.1204 17.831 19.9375 17.9505 19.5717 18.1895L15.4317 20.8948C15.0102 21.1703 14.7994 21.3081 14.6251 21.2954C14.4732 21.2844 14.3335 21.2068 14.2422 21.0829C14.1375 20.9407 14.1375 20.686 14.1375 20.1766V14.766Z" fill="white"/>
<rect x="31" y="7" width="1" height="19" fill="#232323"/>
<path d="M39.9244 10.4054L43.3363 17.1757L46.8066 10.4054H49.7116L44.6815 19.7703V24.7973H42.0106V19.7297L37 10.4054H39.9244Z" fill="#232323"/>
<path d="M53.9103 25C53.0785 25 52.3311 24.8581 51.6682 24.5743C51.0054 24.277 50.44 23.8716 49.972 23.3581C49.5171 22.8446 49.1662 22.2568 48.9192 21.5946C48.6723 20.9324 48.5488 20.2365 48.5488 19.5068C48.5488 18.7635 48.6723 18.0608 48.9192 17.3986C49.1662 16.7365 49.5171 16.1486 49.972 15.6351C50.44 15.1216 51.0054 14.723 51.6682 14.4392C52.3311 14.1419 53.0785 13.9932 53.9103 13.9932C54.7421 13.9932 55.483 14.1419 56.1329 14.4392C56.7958 14.723 57.3612 15.1216 57.8291 15.6351C58.297 16.1486 58.6479 16.7365 58.8819 17.3986C59.1288 18.0608 59.2523 18.7635 59.2523 19.5068C59.2523 20.2365 59.1288 20.9324 58.8819 21.5946C58.6479 22.2568 58.297 22.8446 57.8291 23.3581C57.3741 23.8716 56.8153 24.277 56.1524 24.5743C55.4895 24.8581 54.7421 25 53.9103 25ZM51.2393 19.5068C51.2393 20.1284 51.3563 20.6824 51.5902 21.1689C51.8242 21.6419 52.1426 22.0135 52.5456 22.2838C52.9485 22.5541 53.4034 22.6892 53.9103 22.6892C54.4042 22.6892 54.8526 22.5541 55.2555 22.2838C55.6585 22 55.9769 21.6216 56.2109 21.1486C56.4578 20.6622 56.5813 20.1081 56.5813 19.4865C56.5813 18.8784 56.4578 18.3311 56.2109 17.8446C55.9769 17.3581 55.6585 16.9797 55.2555 16.7095C54.8526 16.4392 54.4042 16.3041 53.9103 16.3041C53.4034 16.3041 52.9485 16.4459 52.5456 16.7297C52.1426 17 51.8242 17.3784 51.5902 17.8649C51.3563 18.3378 51.2393 18.8851 51.2393 19.5068Z" fill="#232323"/>
<path d="M60.9182 20.8243V14.1757H63.5307V20.2365C63.5307 21.0473 63.6736 21.6622 63.9596 22.0811C64.2455 22.4865 64.6679 22.6892 65.2268 22.6892C65.5648 22.6892 65.8962 22.6216 66.2212 22.4865C66.5591 22.3378 66.8645 22.1216 67.1375 21.8378C67.4234 21.5541 67.6639 21.1959 67.8588 20.7635V14.1757H70.4713V21.7568C70.4713 22.0405 70.5168 22.2432 70.6078 22.3649C70.7118 22.4865 70.8743 22.5608 71.0952 22.5878V24.7973C70.8353 24.8378 70.6143 24.8649 70.4324 24.8784C70.2634 24.9054 70.1074 24.9189 69.9644 24.9189C69.4965 24.9189 69.1131 24.8108 68.8142 24.5946C68.5282 24.3649 68.3593 24.0541 68.3073 23.6622L68.2488 22.8108C67.7939 23.527 67.209 24.0743 66.4941 24.4527C65.7792 24.8176 64.9929 25 64.135 25C63.0822 25 62.2829 24.6486 61.737 23.9459C61.1911 23.2297 60.9182 22.1892 60.9182 20.8243Z" fill="#232323"/>
<path d="M79.1513 24.25C78.9304 24.3446 78.6639 24.4527 78.352 24.5743C78.04 24.6959 77.7021 24.7905 77.3382 24.8581C76.9872 24.9392 76.6298 24.9797 76.2659 24.9797C75.785 24.9797 75.343 24.8919 74.9401 24.7162C74.5372 24.5405 74.2123 24.2635 73.9653 23.8851C73.7313 23.4932 73.6144 22.9865 73.6144 22.3649V16.2635H72.2691V14.1757H73.6144V10.7297H76.2269V14.1757H78.3715V16.2635H76.2269V21.4527C76.2399 21.8176 76.3374 22.0811 76.5193 22.2432C76.7013 22.4054 76.9287 22.4865 77.2017 22.4865C77.4746 22.4865 77.7411 22.4392 78.001 22.3446C78.261 22.25 78.4689 22.1689 78.6249 22.1014L79.1513 24.25Z" fill="#232323"/>
<path d="M80.4145 20.8243V14.1757H83.027V20.2365C83.027 21.0473 83.1699 21.6622 83.4559 22.0811C83.7418 22.4865 84.1643 22.6892 84.7231 22.6892C85.0611 22.6892 85.3925 22.6216 85.7175 22.4865C86.0554 22.3378 86.3608 22.1216 86.6338 21.8378C86.9197 21.5541 87.1602 21.1959 87.3552 20.7635V14.1757H89.9677V21.7568C89.9677 22.0405 90.0131 22.2432 90.1041 22.3649C90.2081 22.4865 90.3706 22.5608 90.5915 22.5878V24.7973C90.3316 24.8378 90.1106 24.8649 89.9287 24.8784C89.7597 24.9054 89.6037 24.9189 89.4608 24.9189C88.9928 24.9189 88.6094 24.8108 88.3105 24.5946C88.0245 24.3649 87.8556 24.0541 87.8036 23.6622L87.7451 22.8108C87.2902 23.527 86.7053 24.0743 85.9904 24.4527C85.2755 24.8176 84.4892 25 83.6314 25C82.5786 25 81.7792 24.6486 81.2333 23.9459C80.6874 23.2297 80.4145 22.1892 80.4145 20.8243Z" fill="#232323"/>
<path d="M98.3738 25C97.5939 25 96.8985 24.8176 96.2877 24.4527C95.6768 24.0878 95.1959 23.5878 94.8449 22.9527V24.7973H92.5639V10H95.1764V16.0405C95.5403 15.4054 96.0147 14.9054 96.5996 14.5405C97.1975 14.1757 97.8929 13.9932 98.6857 13.9932C99.3486 13.9932 99.953 14.1419 100.499 14.4392C101.045 14.723 101.513 15.1216 101.903 15.6351C102.306 16.1486 102.611 16.7365 102.819 17.3986C103.04 18.0608 103.15 18.7703 103.15 19.527C103.15 20.2838 103.027 20.9932 102.78 21.6554C102.546 22.3176 102.215 22.9054 101.786 23.4189C101.357 23.9189 100.85 24.3108 100.265 24.5946C99.693 24.8649 99.0626 25 98.3738 25ZM97.6524 22.6892C98.0683 22.6892 98.4452 22.6081 98.7832 22.4459C99.1341 22.2703 99.4331 22.0405 99.68 21.7568C99.94 21.473 100.135 21.1419 100.265 20.7635C100.408 20.3716 100.479 19.9662 100.479 19.5473C100.479 18.9662 100.362 18.4324 100.128 17.9459C99.9075 17.4459 99.5955 17.0473 99.1926 16.75C98.8027 16.4527 98.3413 16.3041 97.8084 16.3041C97.4314 16.3041 97.0675 16.3986 96.7166 16.5878C96.3786 16.7635 96.0732 17.0068 95.8002 17.3176C95.5403 17.6284 95.3323 17.9797 95.1764 18.3716V20.9054C95.2544 21.1757 95.3778 21.4189 95.5468 21.6351C95.7288 21.8514 95.9367 22.0405 96.1707 22.2027C96.4046 22.3514 96.6451 22.473 96.892 22.5676C97.152 22.6486 97.4054 22.6892 97.6524 22.6892Z" fill="#232323"/>
<path d="M109.658 25C108.839 25 108.098 24.8581 107.435 24.5743C106.773 24.277 106.207 23.8784 105.739 23.3784C105.271 22.8649 104.907 22.2838 104.647 21.6351C104.401 20.973 104.277 20.277 104.277 19.5473C104.277 18.5338 104.491 17.6081 104.92 16.7703C105.362 15.9324 105.986 15.2635 106.792 14.7635C107.611 14.25 108.573 13.9932 109.678 13.9932C110.795 13.9932 111.751 14.25 112.543 14.7635C113.336 15.2635 113.941 15.9324 114.357 16.7703C114.786 17.5946 115 18.4865 115 19.4459C115 19.6081 114.993 19.777 114.981 19.9527C114.968 20.1149 114.955 20.25 114.942 20.3581H107.046C107.097 20.8986 107.247 21.3716 107.494 21.777C107.754 22.1824 108.079 22.4932 108.469 22.7095C108.872 22.9122 109.301 23.0135 109.755 23.0135C110.275 23.0135 110.763 22.8851 111.218 22.6284C111.686 22.3581 112.004 22.0068 112.173 21.5743L114.415 22.223C114.168 22.7635 113.811 23.2432 113.343 23.6622C112.888 24.0811 112.348 24.4122 111.725 24.6554C111.101 24.8851 110.412 25 109.658 25ZM106.987 18.6351H112.329C112.277 18.0946 112.128 17.6284 111.881 17.2365C111.647 16.8311 111.335 16.5203 110.945 16.3041C110.555 16.0743 110.119 15.9595 109.639 15.9595C109.171 15.9595 108.742 16.0743 108.352 16.3041C107.975 16.5203 107.663 16.8311 107.416 17.2365C107.182 17.6284 107.039 18.0946 106.987 18.6351Z" fill="#232323"/>
</svg>
